<mxfile host="app.diagrams.net" modified="2023-08-01T10:19:30.108Z" agent="Mozilla/5.0 (Windows NT 10.0; Win64; x64) AppleWebKit/537.36 (KHTML, like Gecko) Chrome/115.0.0.0 Safari/537.36" etag="lm3t7m9Ao7LFhzyI7AoD" version="21.6.6" type="github">
  <diagram name="Página-1" id="WWT719LNny2tgm_pu9T7">
    <mxGraphModel dx="794" dy="456" grid="1" gridSize="10" guides="1" tooltips="1" connect="1" arrows="1" fold="1" page="1" pageScale="1" pageWidth="1169" pageHeight="1654" math="0" shadow="0">
      <root>
        <mxCell id="0" />
        <mxCell id="1" parent="0" />
        <mxCell id="pwxFlleVJRA5MfowCO8P-1" value="&amp;lt;" style="rounded=0;whiteSpace=wrap;html=1;fillColor=#dae8fc;strokeColor=#6c8ebf;" parent="1" vertex="1">
          <mxGeometry x="430" y="630" width="207.5" height="100" as="geometry" />
        </mxCell>
        <mxCell id="_dK-4oPuBix2GQUZl8pp-24" value="" style="rounded=0;whiteSpace=wrap;html=1;fillColor=#EFEFF0;strokeColor=none;" parent="1" vertex="1">
          <mxGeometry x="145" y="300" width="235" height="710" as="geometry" />
        </mxCell>
        <mxCell id="_dK-4oPuBix2GQUZl8pp-1" value="&lt;b&gt;&lt;font style=&quot;font-size: 27px;&quot;&gt;Prusia Biblioteca&lt;/font&gt;&lt;/b&gt;" style="text;strokeColor=#432D57;align=center;fillColor=#76608a;html=1;verticalAlign=middle;whiteSpace=wrap;rounded=0;fontColor=#ffffff;" parent="1" vertex="1">
          <mxGeometry x="500" y="80" width="140" height="80" as="geometry" />
        </mxCell>
        <mxCell id="_dK-4oPuBix2GQUZl8pp-2" value="&lt;span style=&quot;&quot;&gt;&lt;b&gt;&amp;nbsp;Novela&lt;/b&gt;&lt;/span&gt;" style="text;strokeColor=none;align=center;fillColor=none;html=1;verticalAlign=middle;whiteSpace=wrap;rounded=0;" parent="1" vertex="1">
          <mxGeometry x="190" y="390" width="140" height="30" as="geometry" />
        </mxCell>
        <mxCell id="_dK-4oPuBix2GQUZl8pp-3" value="&lt;span style=&quot;&quot;&gt;&lt;b&gt;Historia&lt;/b&gt;&lt;/span&gt;" style="text;strokeColor=none;align=center;fillColor=none;html=1;verticalAlign=middle;whiteSpace=wrap;rounded=0;" parent="1" vertex="1">
          <mxGeometry x="192.5" y="320" width="140" height="30" as="geometry" />
        </mxCell>
        <mxCell id="_dK-4oPuBix2GQUZl8pp-4" value="&lt;span style=&quot;&quot;&gt;&lt;b&gt;Educación emocional y autoconocimiento&lt;/b&gt;&lt;/span&gt;" style="text;strokeColor=none;align=center;fillColor=none;html=1;verticalAlign=middle;whiteSpace=wrap;rounded=0;" parent="1" vertex="1">
          <mxGeometry x="190" y="430" width="140" height="30" as="geometry" />
        </mxCell>
        <mxCell id="_dK-4oPuBix2GQUZl8pp-7" value="&lt;span style=&quot;&quot;&gt;&lt;b&gt;Biografías&lt;/b&gt;&lt;/span&gt;" style="text;strokeColor=none;align=center;fillColor=none;html=1;verticalAlign=middle;whiteSpace=wrap;rounded=0;" parent="1" vertex="1">
          <mxGeometry x="190" y="560" width="140" height="30" as="geometry" />
        </mxCell>
        <mxCell id="_dK-4oPuBix2GQUZl8pp-8" value="&lt;span style=&quot;&quot;&gt;&lt;b&gt;Técnicas artísticas&lt;/b&gt;&lt;/span&gt;" style="text;strokeColor=none;align=center;fillColor=none;html=1;verticalAlign=middle;whiteSpace=wrap;rounded=0;" parent="1" vertex="1">
          <mxGeometry x="190" y="670" width="140" height="30" as="geometry" />
        </mxCell>
        <mxCell id="_dK-4oPuBix2GQUZl8pp-9" value="&lt;span style=&quot;&quot;&gt;&lt;b&gt;Mujer&lt;/b&gt;&lt;/span&gt;" style="text;strokeColor=none;align=center;fillColor=none;html=1;verticalAlign=middle;whiteSpace=wrap;rounded=0;" parent="1" vertex="1">
          <mxGeometry x="190" y="710" width="140" height="30" as="geometry" />
        </mxCell>
        <mxCell id="_dK-4oPuBix2GQUZl8pp-10" value="&lt;span style=&quot;&quot;&gt;&lt;b&gt;Patrimonio artístico&lt;/b&gt;&lt;/span&gt;" style="text;strokeColor=none;align=center;fillColor=none;html=1;verticalAlign=middle;whiteSpace=wrap;rounded=0;" parent="1" vertex="1">
          <mxGeometry x="190" y="470" width="140" height="30" as="geometry" />
        </mxCell>
        <mxCell id="_dK-4oPuBix2GQUZl8pp-11" value="&lt;span style=&quot;&quot;&gt;&lt;b&gt;LGTBI&lt;/b&gt;&lt;/span&gt;" style="text;strokeColor=none;align=center;fillColor=none;html=1;verticalAlign=middle;whiteSpace=wrap;rounded=0;" parent="1" vertex="1">
          <mxGeometry x="190" y="510" width="140" height="30" as="geometry" />
        </mxCell>
        <mxCell id="_dK-4oPuBix2GQUZl8pp-13" value="&lt;span style=&quot;&quot;&gt;&lt;b&gt;Diseño gráfico y marca&amp;nbsp;&lt;/b&gt;&lt;/span&gt;" style="text;strokeColor=none;align=center;fillColor=none;html=1;verticalAlign=middle;whiteSpace=wrap;rounded=0;" parent="1" vertex="1">
          <mxGeometry x="190" y="790" width="140" height="30" as="geometry" />
        </mxCell>
        <mxCell id="_dK-4oPuBix2GQUZl8pp-14" value="&lt;span style=&quot;&quot;&gt;&lt;b&gt;Fotografía&lt;/b&gt;&lt;/span&gt;" style="text;strokeColor=none;align=center;fillColor=none;html=1;verticalAlign=middle;whiteSpace=wrap;rounded=0;" parent="1" vertex="1">
          <mxGeometry x="464" y="645" width="140" height="30" as="geometry" />
        </mxCell>
        <mxCell id="_dK-4oPuBix2GQUZl8pp-15" value="&lt;span style=&quot;&quot;&gt;&lt;b&gt;Ilustración&lt;/b&gt;&lt;/span&gt;" style="text;strokeColor=none;align=center;fillColor=none;html=1;verticalAlign=middle;whiteSpace=wrap;rounded=0;" parent="1" vertex="1">
          <mxGeometry x="464" y="685" width="140" height="30" as="geometry" />
        </mxCell>
        <mxCell id="_dK-4oPuBix2GQUZl8pp-16" value="&lt;span style=&quot;&quot;&gt;&lt;b&gt;Andalucía&lt;/b&gt;&lt;/span&gt;" style="text;strokeColor=none;align=center;fillColor=none;html=1;verticalAlign=middle;whiteSpace=wrap;rounded=0;" parent="1" vertex="1">
          <mxGeometry x="190" y="750" width="140" height="30" as="geometry" />
        </mxCell>
        <mxCell id="_dK-4oPuBix2GQUZl8pp-25" value="" style="rounded=0;whiteSpace=wrap;html=1;fillColor=#468B97;strokeColor=none;" parent="1" vertex="1">
          <mxGeometry x="145" y="250" width="235" height="50" as="geometry" />
        </mxCell>
        <mxCell id="_dK-4oPuBix2GQUZl8pp-26" style="edgeStyle=orthogonalEdgeStyle;rounded=0;orthogonalLoop=1;jettySize=auto;html=1;exitX=0.5;exitY=1;exitDx=0;exitDy=0;" parent="1" source="_dK-4oPuBix2GQUZl8pp-25" target="_dK-4oPuBix2GQUZl8pp-25" edge="1">
          <mxGeometry relative="1" as="geometry" />
        </mxCell>
        <mxCell id="_dK-4oPuBix2GQUZl8pp-28" value="&lt;span style=&quot;&quot;&gt;&lt;b&gt;&lt;font style=&quot;font-size: 16px;&quot; color=&quot;#ffffff&quot;&gt;Categorías&lt;/font&gt;&lt;/b&gt;&lt;/span&gt;" style="text;strokeColor=none;align=center;fillColor=none;html=1;verticalAlign=middle;whiteSpace=wrap;rounded=0;" parent="1" vertex="1">
          <mxGeometry x="192.5" y="260" width="140" height="30" as="geometry" />
        </mxCell>
        <mxCell id="_dK-4oPuBix2GQUZl8pp-37" value="" style="edgeStyle=entityRelationEdgeStyle;fontSize=12;html=1;endArrow=ERoneToMany;rounded=0;" parent="1" edge="1">
          <mxGeometry width="100" height="100" relative="1" as="geometry">
            <mxPoint x="650" y="120" as="sourcePoint" />
            <mxPoint x="920" y="240" as="targetPoint" />
          </mxGeometry>
        </mxCell>
        <mxCell id="_dK-4oPuBix2GQUZl8pp-42" value="&lt;span style=&quot;&quot;&gt;&lt;b&gt;Teatro&lt;/b&gt;&lt;/span&gt;" style="text;strokeColor=none;align=center;fillColor=none;html=1;verticalAlign=middle;whiteSpace=wrap;rounded=0;" parent="1" vertex="1">
          <mxGeometry x="190" y="827" width="140" height="30" as="geometry" />
        </mxCell>
        <mxCell id="_dK-4oPuBix2GQUZl8pp-43" value="&lt;b&gt;Filosofía&lt;/b&gt;" style="text;strokeColor=none;align=center;fillColor=none;html=1;verticalAlign=middle;whiteSpace=wrap;rounded=0;" parent="1" vertex="1">
          <mxGeometry x="190" y="630" width="140" height="30" as="geometry" />
        </mxCell>
        <mxCell id="pwxFlleVJRA5MfowCO8P-2" value="" style="rounded=0;whiteSpace=wrap;html=1;fillColor=#468B97;strokeColor=none;" parent="1" vertex="1">
          <mxGeometry x="429.5" y="249" width="210.5" height="50" as="geometry" />
        </mxCell>
        <mxCell id="pwxFlleVJRA5MfowCO8P-3" value="&lt;span style=&quot;&quot;&gt;&lt;b&gt;&lt;font style=&quot;font-size: 16px;&quot; color=&quot;#ffffff&quot;&gt;Subcategorías&lt;/font&gt;&lt;/b&gt;&lt;/span&gt;" style="text;strokeColor=none;align=center;fillColor=none;html=1;verticalAlign=middle;whiteSpace=wrap;rounded=0;" parent="1" vertex="1">
          <mxGeometry x="471" y="259" width="140" height="30" as="geometry" />
        </mxCell>
        <mxCell id="pwxFlleVJRA5MfowCO8P-6" value="" style="shape=crossbar;whiteSpace=wrap;html=1;rounded=1;" parent="1" vertex="1">
          <mxGeometry x="390" y="267" width="30" height="20" as="geometry" />
        </mxCell>
        <mxCell id="pwxFlleVJRA5MfowCO8P-7" value="" style="shape=partialRectangle;whiteSpace=wrap;html=1;bottom=0;right=0;fillColor=none;" parent="1" vertex="1">
          <mxGeometry x="260" y="120" width="230" height="130" as="geometry" />
        </mxCell>
        <mxCell id="pwxFlleVJRA5MfowCO8P-12" value="" style="line;strokeWidth=2;html=1;" parent="1" vertex="1">
          <mxGeometry x="332.5" y="680" width="97.5" height="10" as="geometry" />
        </mxCell>
        <mxCell id="pwxFlleVJRA5MfowCO8P-16" value="" style="line;strokeWidth=2;html=1;" parent="1" vertex="1">
          <mxGeometry x="330" y="400" width="110" height="10" as="geometry" />
        </mxCell>
        <mxCell id="pwxFlleVJRA5MfowCO8P-13" value="" style="rounded=0;whiteSpace=wrap;html=1;fillColor=#dae8fc;strokeColor=#6c8ebf;" parent="1" vertex="1">
          <mxGeometry x="430" y="380" width="207.5" height="60" as="geometry" />
        </mxCell>
        <mxCell id="pwxFlleVJRA5MfowCO8P-14" value="&lt;span style=&quot;&quot;&gt;&lt;b&gt;Novela gráfica&lt;/b&gt;&lt;/span&gt;" style="text;strokeColor=none;align=center;fillColor=none;html=1;verticalAlign=middle;whiteSpace=wrap;rounded=0;" parent="1" vertex="1">
          <mxGeometry x="464" y="382" width="140" height="30" as="geometry" />
        </mxCell>
        <mxCell id="pwxFlleVJRA5MfowCO8P-15" value="&lt;span style=&quot;&quot;&gt;&lt;b&gt;Sátira&lt;/b&gt;&lt;/span&gt;" style="text;strokeColor=none;align=center;fillColor=none;html=1;verticalAlign=middle;whiteSpace=wrap;rounded=0;" parent="1" vertex="1">
          <mxGeometry x="464" y="411" width="140" height="30" as="geometry" />
        </mxCell>
        <mxCell id="pwxFlleVJRA5MfowCO8P-17" value="&lt;span style=&quot;&quot;&gt;&lt;b&gt;Cómic&lt;/b&gt;&lt;/span&gt;" style="text;strokeColor=none;align=center;fillColor=none;html=1;verticalAlign=middle;whiteSpace=wrap;rounded=0;" parent="1" vertex="1">
          <mxGeometry x="190" y="870" width="140" height="30" as="geometry" />
        </mxCell>
        <mxCell id="pwxFlleVJRA5MfowCO8P-18" value="" style="rounded=0;whiteSpace=wrap;html=1;fillColor=#dae8fc;strokeColor=#6c8ebf;" parent="1" vertex="1">
          <mxGeometry x="430" y="870" width="207.5" height="50" as="geometry" />
        </mxCell>
        <mxCell id="pwxFlleVJRA5MfowCO8P-19" value="&lt;span style=&quot;&quot;&gt;&lt;b&gt;Novela gráfica&lt;/b&gt;&lt;/span&gt;" style="text;strokeColor=none;align=center;fillColor=none;html=1;verticalAlign=middle;whiteSpace=wrap;rounded=0;" parent="1" vertex="1">
          <mxGeometry x="464" y="883" width="140" height="30" as="geometry" />
        </mxCell>
        <mxCell id="pwxFlleVJRA5MfowCO8P-21" value="" style="line;strokeWidth=2;html=1;" parent="1" vertex="1">
          <mxGeometry x="332.5" y="880" width="97.5" height="10" as="geometry" />
        </mxCell>
        <mxCell id="pwxFlleVJRA5MfowCO8P-22" value="&lt;span style=&quot;&quot;&gt;&lt;b&gt;Poesía&lt;/b&gt;&lt;/span&gt;" style="text;strokeColor=none;align=center;fillColor=none;html=1;verticalAlign=middle;whiteSpace=wrap;rounded=0;" parent="1" vertex="1">
          <mxGeometry x="190" y="913" width="140" height="30" as="geometry" />
        </mxCell>
        <mxCell id="pwxFlleVJRA5MfowCO8P-24" value="" style="line;strokeWidth=2;html=1;" parent="1" vertex="1">
          <mxGeometry x="332.5" y="329" width="110" height="10" as="geometry" />
        </mxCell>
        <mxCell id="pwxFlleVJRA5MfowCO8P-25" value="" style="rounded=0;whiteSpace=wrap;html=1;fillColor=#dae8fc;strokeColor=#6c8ebf;" parent="1" vertex="1">
          <mxGeometry x="432.5" y="309" width="207.5" height="51" as="geometry" />
        </mxCell>
        <mxCell id="_dK-4oPuBix2GQUZl8pp-5" value="&lt;span style=&quot;&quot;&gt;&lt;b&gt;Historia del arte&lt;/b&gt;&lt;/span&gt;" style="text;strokeColor=none;align=center;fillColor=none;html=1;verticalAlign=middle;whiteSpace=wrap;rounded=0;" parent="1" vertex="1">
          <mxGeometry x="471" y="320" width="140" height="30" as="geometry" />
        </mxCell>
        <mxCell id="pwxFlleVJRA5MfowCO8P-26" value="" style="line;strokeWidth=2;html=1;" parent="1" vertex="1">
          <mxGeometry x="330" y="569.5" width="110" height="10" as="geometry" />
        </mxCell>
        <mxCell id="pwxFlleVJRA5MfowCO8P-27" value="" style="rounded=0;whiteSpace=wrap;html=1;fillColor=#dae8fc;strokeColor=#6c8ebf;" parent="1" vertex="1">
          <mxGeometry x="430" y="549.5" width="207.5" height="51" as="geometry" />
        </mxCell>
        <mxCell id="pwxFlleVJRA5MfowCO8P-28" value="&lt;span style=&quot;&quot;&gt;&lt;b&gt;Artistas&lt;/b&gt;&lt;/span&gt;" style="text;strokeColor=none;align=center;fillColor=none;html=1;verticalAlign=middle;whiteSpace=wrap;rounded=0;" parent="1" vertex="1">
          <mxGeometry x="468.5" y="560.5" width="140" height="30" as="geometry" />
        </mxCell>
        <mxCell id="pwxFlleVJRA5MfowCO8P-38" value="Libro" style="swimlane;fontStyle=0;childLayout=stackLayout;horizontal=1;startSize=26;fillColor=#dae8fc;horizontalStack=0;resizeParent=1;resizeParentMax=0;resizeLast=0;collapsible=1;marginBottom=0;html=1;strokeColor=#6c8ebf;fontSize=20;spacing=5;spacingTop=3;" parent="1" vertex="1">
          <mxGeometry x="940" y="210" width="140" height="260" as="geometry">
            <mxRectangle x="710" y="600.5" width="70" height="30" as="alternateBounds" />
          </mxGeometry>
        </mxCell>
        <mxCell id="pwxFlleVJRA5MfowCO8P-39" value="ID" style="text;strokeColor=none;fillColor=none;align=left;verticalAlign=top;spacingLeft=4;spacingRight=4;overflow=hidden;rotatable=0;points=[[0,0.5],[1,0.5]];portConstraint=eastwest;whiteSpace=wrap;html=1;fontSize=17;" parent="pwxFlleVJRA5MfowCO8P-38" vertex="1">
          <mxGeometry y="26" width="140" height="26" as="geometry" />
        </mxCell>
        <mxCell id="pwxFlleVJRA5MfowCO8P-40" value="Título" style="text;strokeColor=none;fillColor=none;align=left;verticalAlign=top;spacingLeft=4;spacingRight=4;overflow=hidden;rotatable=0;points=[[0,0.5],[1,0.5]];portConstraint=eastwest;whiteSpace=wrap;html=1;fontSize=17;" parent="pwxFlleVJRA5MfowCO8P-38" vertex="1">
          <mxGeometry y="52" width="140" height="26" as="geometry" />
        </mxCell>
        <mxCell id="pwxFlleVJRA5MfowCO8P-41" value="Autoría" style="text;strokeColor=none;fillColor=none;align=left;verticalAlign=top;spacingLeft=4;spacingRight=4;overflow=hidden;rotatable=0;points=[[0,0.5],[1,0.5]];portConstraint=eastwest;whiteSpace=wrap;html=1;fontSize=17;" parent="pwxFlleVJRA5MfowCO8P-38" vertex="1">
          <mxGeometry y="78" width="140" height="26" as="geometry" />
        </mxCell>
        <mxCell id="pwxFlleVJRA5MfowCO8P-50" value="foto" style="text;strokeColor=none;fillColor=none;align=left;verticalAlign=top;spacingLeft=4;spacingRight=4;overflow=hidden;rotatable=0;points=[[0,0.5],[1,0.5]];portConstraint=eastwest;whiteSpace=wrap;html=1;fontSize=17;" parent="pwxFlleVJRA5MfowCO8P-38" vertex="1">
          <mxGeometry y="104" width="140" height="26" as="geometry" />
        </mxCell>
        <mxCell id="pwxFlleVJRA5MfowCO8P-51" value="ISBN" style="text;strokeColor=none;fillColor=none;align=left;verticalAlign=top;spacingLeft=4;spacingRight=4;overflow=hidden;rotatable=0;points=[[0,0.5],[1,0.5]];portConstraint=eastwest;whiteSpace=wrap;html=1;fontSize=17;" parent="pwxFlleVJRA5MfowCO8P-38" vertex="1">
          <mxGeometry y="130" width="140" height="26" as="geometry" />
        </mxCell>
        <mxCell id="pwxFlleVJRA5MfowCO8P-52" value="Año" style="text;strokeColor=none;fillColor=none;align=left;verticalAlign=top;spacingLeft=4;spacingRight=4;overflow=hidden;rotatable=0;points=[[0,0.5],[1,0.5]];portConstraint=eastwest;whiteSpace=wrap;html=1;fontSize=17;" parent="pwxFlleVJRA5MfowCO8P-38" vertex="1">
          <mxGeometry y="156" width="140" height="26" as="geometry" />
        </mxCell>
        <mxCell id="pwxFlleVJRA5MfowCO8P-53" value="Editorial" style="text;strokeColor=none;fillColor=none;align=left;verticalAlign=top;spacingLeft=4;spacingRight=4;overflow=hidden;rotatable=0;points=[[0,0.5],[1,0.5]];portConstraint=eastwest;whiteSpace=wrap;html=1;fontSize=17;" parent="pwxFlleVJRA5MfowCO8P-38" vertex="1">
          <mxGeometry y="182" width="140" height="26" as="geometry" />
        </mxCell>
        <mxCell id="pwxFlleVJRA5MfowCO8P-54" value="Sinopsis" style="text;strokeColor=none;fillColor=none;align=left;verticalAlign=top;spacingLeft=4;spacingRight=4;overflow=hidden;rotatable=0;points=[[0,0.5],[1,0.5]];portConstraint=eastwest;whiteSpace=wrap;html=1;fontSize=17;" parent="pwxFlleVJRA5MfowCO8P-38" vertex="1">
          <mxGeometry y="208" width="140" height="26" as="geometry" />
        </mxCell>
        <mxCell id="pwxFlleVJRA5MfowCO8P-55" value="Mi Opinión" style="text;strokeColor=none;fillColor=none;align=left;verticalAlign=top;spacingLeft=4;spacingRight=4;overflow=hidden;rotatable=0;points=[[0,0.5],[1,0.5]];portConstraint=eastwest;whiteSpace=wrap;html=1;fontSize=17;" parent="pwxFlleVJRA5MfowCO8P-38" vertex="1">
          <mxGeometry y="234" width="140" height="26" as="geometry" />
        </mxCell>
        <mxCell id="sutuBHRi3n4paaQfALvP-1" value="&lt;span style=&quot;&quot;&gt;&lt;b&gt;Arte Sacro&lt;/b&gt;&lt;/span&gt;" style="text;strokeColor=none;align=center;fillColor=none;html=1;verticalAlign=middle;whiteSpace=wrap;rounded=0;" parent="1" vertex="1">
          <mxGeometry x="190" y="952" width="140" height="30" as="geometry" />
        </mxCell>
      </root>
    </mxGraphModel>
  </diagram>
</mxfile>
